<?xml version="1.0" standalone="no"?>
<!DOCTYPE svg PUBLIC "-//W3C//DTD SVG 20010904//EN"
 "http://www.w3.org/TR/2001/REC-SVG-20010904/DTD/svg10.dtd">
<svg version="1.0" xmlns="http://www.w3.org/2000/svg"
 width="512.000000pt" height="512.000000pt" viewBox="0 0 512.000000 512.000000"
 preserveAspectRatio="xMidYMid meet">
<metadata>
Created by potrace 1.14, written by Peter Selinger 2001-2017
</metadata>
<g transform="translate(0.000000,512.000000) scale(0.100000,-0.100000)"
fill="#000000" stroke="none">
<path d="M590 3590 c0 -21 44 -38 170 -63 l65 -13 3 -957 2 -957 -22 -4 c-81
-15 -186 -40 -200 -48 -10 -5 -18 -15 -18 -23 0 -13 53 -15 381 -15 357 0 380
1 377 18 -2 13 -27 23 -103 41 -55 13 -106 25 -112 27 -10 3 -13 104 -13 464
l0 460 543 -2 542 -3 3 -457 2 -457 -37 -6 c-80 -13 -203 -56 -203 -70 0 -13
53 -15 385 -15 326 0 385 2 385 14 0 16 -63 39 -155 56 -33 6 -68 14 -78 16
-16 5 -17 59 -17 959 l0 954 38 6 c20 4 75 17 122 28 71 18 85 25 85 42 0 20
-8 20 -382 23 -373 2 -383 2 -383 -17 0 -21 49 -39 173 -64 l62 -13 3 -442 2
-442 -545 0 -545 0 2 442 3 443 50 7 c28 4 77 15 110 25 47 15 61 23 63 41 l3
22 -380 0 c-373 0 -381 0 -381 -20z"/>
<path d="M2980 3590 c0 -22 56 -42 173 -62 l67 -12 0 -958 0 -958 -22 -4
c-192 -37 -228 -48 -228 -71 0 -13 86 -15 760 -15 418 0 760 3 760 8 0 4 9 95
20 202 11 107 20 201 20 208 0 7 -14 12 -35 12 -25 0 -39 -6 -49 -22 -25 -39
-77 -180 -90 -243 l-13 -60 -414 0 -414 0 0 949 0 950 107 22 c122 26 128 28
128 55 0 18 -11 19 -385 19 -376 0 -385 0 -385 -20z"/>
</g>
</svg>
